<svg xmlns="http://www.w3.org/2000/svg" xmlns:xlink="http://www.w3.org/1999/xlink" width="546" zoomAndPan="magnify" viewBox="0 0 409.5 335.999987" height="448" preserveAspectRatio="xMidYMid meet" version="1.0"><defs><clipPath id="30b9fd13a3"><path d="M 215 122 L 407 122 L 407 335.046875 L 215 335.046875 Z M 215 122 " clip-rule="nonzero"/></clipPath><clipPath id="adefd0b8dc"><path d="M 141 94 L 403 94 L 403 335.046875 L 141 335.046875 Z M 141 94 " clip-rule="nonzero"/></clipPath><clipPath id="2da7b1ee56"><path d="M 0 122 L 305 122 L 305 335.046875 L 0 335.046875 Z M 0 122 " clip-rule="nonzero"/></clipPath><clipPath id="ac657487a3"><path d="M 74 0.203125 L 374 0.203125 L 374 335 L 74 335 Z M 74 0.203125 " clip-rule="nonzero"/></clipPath><clipPath id="57f01ee703"><path d="M 174 60 L 230 60 L 230 109.539062 L 174 109.539062 Z M 174 60 " clip-rule="nonzero"/></clipPath></defs><path fill="#99673c" d="M 367.316406 317.222656 L 366.851562 318.421875 L 368.132812 318.328125 C 382.265625 317.332031 395.660156 311.074219 405.144531 301.09375 C 406.023438 307.140625 404.507812 313.984375 401.039062 319.332031 C 398.597656 323.09375 394.046875 327.917969 386.242188 329.511719 C 383.636719 330.042969 380.910156 330.3125 378.144531 330.3125 C 373.492188 330.3125 368.679688 329.566406 363.839844 328.089844 L 363.125 327.871094 L 362.847656 328.566406 C 362.121094 330.378906 361.394531 332.199219 360.652344 334.039062 C 354.648438 332.316406 348.527344 330.265625 342.449219 327.933594 L 342.171875 327.828125 L 341.890625 327.921875 C 339.269531 328.828125 336.574219 329.507812 333.875 329.9375 L 333.363281 330.019531 L 333.222656 330.523438 C 332.742188 332.226562 332.355469 333.519531 332.140625 334.210938 L 256.550781 334.210938 C 256.625 333.589844 256.78125 332.664062 257.132812 331.617188 L 257.496094 330.542969 L 242.199219 330.542969 L 240.777344 334.210938 L 216.785156 334.210938 C 216.5 333.1875 216.398438 332.257812 216.472656 331.433594 L 216.558594 330.542969 L 168.660156 330.542969 C 153.644531 330.542969 139.320312 323.332031 130.351562 311.25 L 129.199219 309.699219 L 125.882812 330.542969 L 0.925781 330.542969 L 1.355469 325.996094 C 2.761719 311.179688 13.425781 298.898438 27.890625 295.425781 L 58.371094 288.117188 L 58.476562 289.273438 L 59.269531 289.007812 L 59.195312 288.171875 C 64.050781 286.527344 68.496094 285.023438 71.949219 283.855469 C 71.949219 281.867188 75.804688 269.511719 79.894531 256.964844 C 80.066406 257.292969 80.253906 257.613281 80.433594 257.9375 C 80.511719 257.695312 80.585938 257.464844 80.667969 257.21875 L 80.773438 256.890625 L 80.613281 256.585938 C 74.035156 244.117188 73.289062 229.488281 78.554688 216.445312 L 102.292969 157.671875 C 102.609375 156.890625 102.964844 156.082031 103.378906 155.199219 C 104.113281 153.429688 104.910156 151.773438 105.761719 150.238281 C 114.167969 135.085938 130.164062 125.671875 147.507812 125.671875 C 155.542969 125.671875 163.53125 127.746094 170.605469 131.671875 L 218.867188 158.460938 L 219.941406 157.304688 C 218.703125 155.398438 216.535156 151.636719 215.96875 147.828125 C 215.933594 147.589844 215.992188 147.355469 216.136719 147.167969 C 216.277344 146.980469 216.480469 146.863281 216.710938 146.832031 L 216.84375 146.816406 L 228.035156 146.816406 L 228.277344 146.457031 C 228.378906 146.300781 228.480469 146.15625 228.582031 146.003906 L 227.601562 146.003906 C 237.21875 131.636719 249.464844 115.335938 259.363281 108.75 C 263.824219 105.785156 268.941406 103.582031 274.210938 102.4375 C 273.351562 102.910156 272.5 103.414062 271.652344 103.9375 C 272.558594 103.671875 273.472656 103.429688 274.386719 103.234375 L 274.5 103.207031 L 274.601562 103.152344 C 280.417969 99.976562 286.855469 97.765625 294.292969 96.398438 L 294.402344 96.378906 L 294.402344 94.566406 C 276.800781 92.613281 263.105469 77.550781 263.105469 59.25 C 263.105469 59.027344 263.117188 58.804688 263.121094 58.582031 C 263.128906 58.226562 263.144531 57.871094 263.160156 57.519531 C 257.800781 52.6875 254.734375 45.839844 254.734375 38.613281 C 254.734375 25.917969 264.207031 15.070312 276.773438 13.382812 L 277.152344 13.332031 L 277.355469 13.007812 C 282.03125 5.5 290.144531 1.019531 299.054688 1.019531 C 304.523438 1.019531 309.738281 2.707031 314.132812 5.902344 L 314.3125 6.027344 L 314.527344 6.050781 C 333.472656 8.050781 347.757812 24.269531 347.757812 43.78125 C 347.757812 51.027344 345.753906 58.042969 341.964844 64.125 C 342.085938 64.464844 342.195312 64.804688 342.277344 65.160156 C 342.421875 65.78125 342.5 66.425781 342.5 67.089844 C 342.5 72.066406 338.265625 76.097656 333.039062 76.097656 L 331.609375 76.097656 C 331.820312 75.835938 332.007812 75.554688 332.210938 75.285156 L 331.21875 75.285156 L 330.972656 75.589844 C 330.101562 76.679688 329.199219 77.679688 328.289062 78.570312 C 327.644531 79.203125 326.878906 79.867188 326.082031 80.011719 L 325.769531 80.070312 L 325.578125 80.320312 C 325.457031 80.480469 325.332031 80.636719 325.207031 80.792969 C 325.398438 80.835938 325.597656 80.863281 325.808594 80.859375 C 325.949219 80.855469 326.089844 80.835938 326.226562 80.8125 C 321.828125 86.625 315.695312 91.023438 308.605469 93.222656 L 308.605469 95.042969 L 308.617188 95.042969 C 309.214844 95.03125 309.808594 95.027344 310.410156 95.027344 C 334.089844 95.027344 357.773438 102.464844 370.75 113.972656 C 391.359375 132.253906 401.09375 154.597656 401.242188 184.113281 C 401.519531 185.070312 401.785156 186.027344 402.042969 186.980469 C 405.988281 201.609375 407.808594 215.097656 405.714844 223.566406 C 404.921875 226.78125 401.128906 230.296875 395.488281 233.765625 C 395.167969 233.964844 394.839844 234.160156 394.507812 234.355469 C 389.121094 256.921875 380.226562 284.035156 367.316406 317.222656 Z M 367.316406 317.222656 " fill-opacity="1" fill-rule="nonzero"/><g clip-path="url(#30b9fd13a3)"><path fill="#cc936b" d="M 405.652344 299.335938 C 396.148438 310 382.289062 316.515625 368.078125 317.515625 C 365.726562 317.6875 363.378906 317.703125 361.027344 317.554688 C 361.507812 316.824219 361.9375 316.035156 362.34375 315.230469 C 362.050781 315.238281 361.75 315.230469 361.449219 315.222656 C 369.53125 300.09375 365.117188 273.734375 344.59375 252.011719 C 337.367188 253.425781 330.566406 254.246094 324.933594 254.246094 C 324.121094 255.191406 323.167969 256.054688 322.078125 256.808594 C 306.546875 267.585938 276.203125 258.085938 274.542969 256.71875 C 273.210938 255.628906 271.402344 242.039062 271.121094 239.671875 C 272.421875 239.964844 273.625 240.28125 274.722656 240.691406 C 270.714844 235.824219 268.160156 230.515625 268.054688 225.398438 C 268.011719 223.445312 269.128906 219.332031 271.046875 219.699219 C 269.519531 216.054688 267.964844 214.136719 266.070312 210.589844 C 269.402344 208.988281 272.316406 207.839844 275.300781 210.261719 C 279.535156 213.695312 290.578125 227.007812 302.53125 228.578125 C 302.117188 226.21875 303.410156 225.984375 299.929688 222.925781 C 291.421875 216.835938 288.609375 212.214844 291.886719 204.714844 C 299.613281 209.734375 308.507812 212.167969 315.613281 217.527344 C 315.839844 217.695312 316.070312 217.875 316.296875 218.054688 C 316.523438 218.242188 316.753906 218.421875 316.972656 218.609375 C 316.859375 218.398438 316.746094 218.183594 316.628906 217.964844 C 313.832031 212.777344 311.335938 207.382812 309.148438 202.050781 C 309.417969 201.828125 309.644531 201.652344 309.816406 201.503906 C 306.855469 194.265625 304.457031 187.09375 302.710938 180.578125 C 307.207031 176.046875 310.410156 170.6875 310.109375 165.808594 C 309.457031 155.265625 304.050781 146.523438 297.832031 140.425781 C 294 129.109375 280.828125 122.011719 268.078125 122.003906 L 268.070312 122.003906 C 267.445312 122.003906 266.828125 122.035156 266.214844 122.074219 C 266.101562 122.082031 265.988281 122.09375 265.882812 122.101562 C 265.296875 122.148438 264.726562 122.214844 264.160156 122.296875 C 264.117188 122.304688 264.070312 122.304688 264.027344 122.3125 C 264.019531 122.3125 264.011719 122.320312 264.003906 122.320312 C 262.996094 122.75 261.90625 123.261719 260.785156 123.898438 C 250.855469 126.832031 243.570312 135.519531 242.628906 146.078125 L 242.5625 146.816406 L 227.316406 146.816406 L 227.738281 146.003906 L 216.820312 146.003906 C 216.746094 146.003906 216.679688 146.019531 216.605469 146.027344 C 215.679688 146.140625 215.023438 146.996094 215.167969 147.949219 C 215.738281 151.800781 217.828125 155.550781 219.257812 157.746094 C 219.28125 157.78125 219.308594 157.820312 219.332031 157.851562 C 219.550781 158.1875 219.875 158.382812 220.21875 158.445312 C 220.503906 158.503906 220.804688 158.457031 221.0625 158.324219 C 223.347656 163.464844 226.902344 168.65625 232.308594 170.542969 C 237.203125 172.242188 244.683594 173.355469 253.9375 173.761719 L 254.628906 173.792969 L 254.710938 174.484375 C 255.320312 179.863281 255.9375 184.089844 256.539062 187.050781 L 256.742188 188.027344 L 256.167969 188.027344 C 254.644531 190.3125 245.140625 205.839844 246.71875 232.304688 L 246.726562 232.402344 L 228.851562 326.617188 L 228.105469 326.535156 C 228.097656 326.535156 227.21875 326.4375 225.964844 326.4375 C 223.476562 326.4375 219.039062 326.804688 217.242188 329.292969 C 216.363281 330.503906 216.21875 332.15625 216.785156 334.203125 L 240.773438 334.203125 L 261.648438 280.347656 L 262.5 281.792969 C 265.207031 286.382812 268.28125 290.953125 271.632812 295.386719 C 271.550781 295.734375 271.46875 296.09375 271.394531 296.441406 C 269.28125 306.820312 271.265625 318.191406 278.738281 323.289062 C 262.808594 320.109375 257.890625 326.835938 256.359375 331.359375 C 255.6875 333.367188 255.679688 334.945312 255.679688 335.019531 L 332.738281 335.019531 C 332.738281 335.019531 333.257812 333.390625 334.007812 330.738281 C 334.128906 330.300781 334.257812 329.84375 334.390625 329.347656 C 336.707031 329.0625 338.984375 328.722656 341.179688 328.316406 C 346.035156 327.40625 350.449219 326.152344 353.765625 324.429688 C 353.75 324.632812 353.742188 324.753906 353.742188 324.753906 C 353.742188 324.753906 357.589844 327.03125 363.605469 328.867188 C 369.597656 330.699219 377.753906 332.074219 386.40625 330.308594 C 401.75 327.167969 408.246094 311.046875 405.652344 299.335938 Z M 284.910156 250.019531 C 283.667969 249.132812 282.460938 248.210938 281.308594 247.253906 C 281.617188 248.105469 281.878906 249.050781 282.082031 250.117188 C 282.625 250.179688 283.609375 250.132812 284.910156 250.019531 Z M 284.910156 250.019531 " fill-opacity="1" fill-rule="nonzero"/></g><g clip-path="url(#adefd0b8dc)"><path fill="#9ecb93" d="M 353.742188 324.753906 C 353.742188 324.753906 357.585938 327.035156 363.601562 328.867188 C 362.789062 330.902344 361.96875 332.949219 361.132812 335.019531 C 354.789062 333.226562 348.445312 331.101562 342.160156 328.691406 C 341.832031 328.566406 341.507812 328.441406 341.183594 328.3125 C 346.035156 327.40625 350.449219 326.152344 353.761719 324.429688 C 353.75 324.632812 353.742188 324.753906 353.742188 324.753906 Z M 371.289062 113.363281 C 356.589844 100.328125 330.601562 93.859375 308.605469 94.230469 L 308.605469 102.464844 L 294.402344 111.574219 L 294.402344 95.550781 C 294.316406 95.566406 294.230469 95.578125 294.144531 95.59375 C 287.4375 96.828125 280.65625 98.914062 274.210938 102.4375 C 264.429688 107.78125 255.433594 116.449219 248.675781 130.523438 C 252.625 126.230469 257.976562 123.257812 264.003906 122.324219 C 264.011719 122.320312 264.023438 122.316406 264.03125 122.3125 C 264.070312 122.304688 264.117188 122.304688 264.15625 122.296875 C 264.726562 122.210938 265.300781 122.148438 265.878906 122.101562 C 265.992188 122.09375 266.105469 122.085938 266.21875 122.078125 C 266.828125 122.035156 267.445312 122.007812 268.066406 122.007812 C 268.070312 122.007812 268.070312 122.007812 268.070312 122.007812 C 268.074219 122.007812 268.074219 122.007812 268.078125 122.007812 C 280.824219 122.007812 294 129.113281 297.832031 140.421875 C 304.050781 146.527344 309.453125 155.265625 310.105469 165.808594 C 310.40625 170.6875 307.207031 176.046875 302.707031 180.578125 C 304.453125 187.089844 306.851562 194.269531 309.8125 201.503906 C 311.484375 205.589844 313.332031 209.6875 315.34375 213.691406 C 315.367188 213.742188 315.394531 213.789062 315.417969 213.839844 C 315.875 214.746094 316.339844 215.644531 316.8125 216.539062 C 316.890625 216.6875 316.96875 216.835938 317.046875 216.984375 C 317.183594 217.234375 317.320312 217.484375 317.457031 217.734375 C 342.628906 210.738281 352.382812 206.121094 353.476562 204.71875 C 357.054688 200.128906 320.398438 159.261719 322.960938 127.425781 C 324.507812 108.175781 345.355469 94.339844 369.785156 118.777344 C 380.351562 129.34375 394.789062 160.089844 402.042969 186.980469 C 402.527344 155.558594 392.710938 132.363281 371.289062 113.363281 Z M 253.902344 174.574219 C 248.273438 174.328125 241.867188 173.757812 236.460938 172.539062 C 234.898438 181.628906 233.765625 190.617188 231.714844 201.554688 C 228.597656 218.175781 232.882812 235.183594 242.300781 251.371094 L 245.910156 232.355469 C 244.183594 203.445312 255.742188 187.128906 255.742188 187.21875 C 255.050781 183.820312 254.421875 179.175781 253.902344 174.574219 Z M 346.300781 252.644531 C 346.808594 253.199219 347.296875 253.753906 347.785156 254.3125 C 348.054688 254.625 348.328125 254.933594 348.59375 255.25 C 349.109375 255.859375 349.605469 256.472656 350.097656 257.089844 C 350.304688 257.347656 350.515625 257.605469 350.71875 257.863281 C 351.398438 258.738281 352.058594 259.613281 352.691406 260.496094 C 352.75 260.578125 352.804688 260.660156 352.863281 260.742188 C 353.429688 261.539062 353.980469 262.339844 354.507812 263.140625 C 354.710938 263.445312 354.898438 263.75 355.09375 264.058594 C 355.46875 264.640625 355.835938 265.21875 356.1875 265.804688 C 356.402344 266.15625 356.605469 266.511719 356.8125 266.863281 C 357.125 267.402344 357.433594 267.941406 357.730469 268.480469 C 357.933594 268.851562 358.132812 269.21875 358.332031 269.589844 C 358.609375 270.121094 358.878906 270.648438 359.144531 271.179688 C 359.328125 271.546875 359.515625 271.914062 359.691406 272.28125 C 359.953125 272.835938 360.203125 273.390625 360.453125 273.945312 C 360.601562 274.28125 360.761719 274.621094 360.90625 274.957031 C 361.265625 275.796875 361.609375 276.636719 361.929688 277.472656 C 362.0625 277.824219 362.183594 278.171875 362.308594 278.523438 C 362.503906 279.054688 362.699219 279.585938 362.875 280.117188 C 363.019531 280.542969 363.152344 280.96875 363.285156 281.394531 C 363.421875 281.832031 363.558594 282.265625 363.683594 282.703125 C 363.816406 283.15625 363.9375 283.605469 364.058594 284.058594 C 364.164062 284.453125 364.269531 284.851562 364.363281 285.246094 C 364.480469 285.71875 364.589844 286.183594 364.695312 286.652344 C 364.773438 287.015625 364.847656 287.371094 364.917969 287.730469 C 365.019531 288.222656 365.117188 288.714844 365.203125 289.203125 C 365.253906 289.496094 365.296875 289.785156 365.34375 290.078125 C 365.65625 292.039062 365.863281 293.964844 365.957031 295.84375 C 365.964844 295.960938 365.972656 296.078125 365.980469 296.191406 C 366.003906 296.777344 366.011719 297.355469 366.019531 297.933594 C 366.019531 298.117188 366.023438 298.304688 366.023438 298.488281 C 366.023438 299.054688 366.007812 299.613281 365.988281 300.171875 C 365.980469 300.34375 365.976562 300.515625 365.964844 300.6875 C 365.9375 301.261719 365.902344 301.828125 365.851562 302.386719 C 365.84375 302.507812 365.828125 302.625 365.816406 302.746094 C 365.5 306.054688 364.820312 309.136719 363.804688 311.921875 C 363.796875 311.9375 363.792969 311.957031 363.785156 311.972656 C 363.585938 312.519531 363.371094 313.054688 363.144531 313.578125 C 363.128906 313.617188 363.113281 313.652344 363.097656 313.6875 C 362.496094 315.066406 361.808594 316.359375 361.03125 317.558594 C 363.378906 317.699219 365.734375 317.683594 368.078125 317.519531 C 380.601562 285.320312 389.835938 257.703125 395.492188 233.765625 C 383.570312 241.101562 363.359375 248.222656 345.546875 251.820312 C 345.800781 252.09375 346.050781 252.371094 346.300781 252.644531 Z M 175.792969 234.324219 L 192.101562 193.972656 L 190.851562 193.464844 L 167.101562 252.230469 L 167.121094 252.238281 C 162.34375 264.050781 153.265625 273.3125 141.546875 278.3125 L 142.078125 279.554688 C 154.125 274.410156 163.464844 264.886719 168.375 252.734375 L 175.261719 235.671875 L 229.421875 235.445312 L 229.417969 234.097656 Z M 175.792969 234.324219 " fill-opacity="1" fill-rule="nonzero"/></g><g clip-path="url(#2da7b1ee56)"><path fill="#ede4c5" d="M 282.085938 250.117188 C 282.015625 249.753906 281.9375 249.414062 281.855469 249.078125 C 282.351562 249.445312 282.871094 249.792969 283.394531 250.121094 C 282.839844 250.148438 282.386719 250.152344 282.085938 250.117188 Z M 216.816406 146 L 216.605469 146 C 216.605469 146 216.605469 146.019531 216.605469 146.023438 C 216.675781 146.015625 216.746094 146 216.816406 146 Z M 268.074219 122.007812 C 268.074219 122.007812 268.070312 122.007812 268.074219 122.007812 C 268.074219 122.007812 268.078125 122.007812 268.078125 122.007812 C 268.078125 122.007812 268.074219 122.007812 268.074219 122.007812 Z M 304.1875 269.046875 C 291.746094 269.605469 281.035156 275.445312 275.140625 286.066406 C 273.410156 289.179688 272.148438 292.746094 271.394531 296.441406 C 268.082031 292.089844 264.824219 287.335938 261.796875 282.210938 L 242.753906 331.355469 L 241.332031 335.019531 L 216.183594 335.019531 C 215.710938 333.59375 215.566406 332.386719 215.664062 331.355469 C 216.316406 324.398438 228.195312 325.722656 228.195312 325.722656 L 242.300781 251.371094 L 245.910156 232.355469 C 244.183594 203.445312 255.742188 187.128906 255.742188 187.21875 C 255.050781 183.820312 254.421875 179.175781 253.902344 174.574219 C 248.273438 174.328125 241.867188 173.757812 236.460938 172.539062 C 234.890625 172.1875 233.398438 171.777344 232.042969 171.304688 C 226.28125 169.300781 222.5625 163.808594 220.21875 158.445312 C 220.769531 158.550781 221.375 158.308594 221.667969 157.738281 L 227.738281 146 L 241.816406 146 C 242.347656 140.050781 244.855469 134.671875 248.679688 130.523438 C 252.625 126.230469 257.976562 123.257812 264.003906 122.324219 C 257.875 124.90625 248.6875 130.96875 246.429688 145.492188 C 251.644531 147.644531 265.363281 154.636719 274.054688 164.535156 C 274.429688 176.847656 276.226562 188.320312 279.582031 190.40625 C 280.023438 190.683594 280.53125 190.882812 281.082031 191.015625 C 279.3125 199.191406 274.648438 202.929688 273.261719 209.132812 C 270.964844 208.394531 268.644531 209.351562 266.074219 210.585938 C 267.960938 214.136719 269.519531 216.058594 271.046875 219.695312 C 269.128906 219.332031 268.011719 223.445312 268.050781 225.402344 C 268.164062 230.519531 270.71875 235.824219 274.722656 240.691406 C 273.621094 240.285156 272.421875 239.964844 271.121094 239.667969 C 271.375 241.765625 272.8125 252.644531 274.066406 255.878906 C 271.671875 257.457031 270.109375 259.621094 268.621094 263.039062 C 267.476562 265.667969 266.160156 269.148438 264.996094 272.21875 C 263.726562 275.578125 262.523438 278.757812 261.921875 279.808594 L 263.09375 280.476562 C 263.746094 279.332031 264.910156 276.257812 266.257812 272.695312 C 267.414062 269.636719 268.726562 266.175781 269.855469 263.574219 C 271.253906 260.367188 272.675781 258.378906 274.914062 256.9375 C 277.273438 258.121094 289.128906 261.757812 301.359375 261.882812 C 302.46875 264.089844 303.429688 266.453125 304.1875 269.046875 Z M 244.589844 158.972656 L 243.242188 158.871094 C 243.035156 161.671875 241.554688 164.332031 239.285156 165.984375 C 237.019531 167.640625 234.039062 168.234375 231.304688 167.578125 L 230.988281 168.886719 C 231.824219 169.089844 232.675781 169.1875 233.53125 169.1875 C 235.863281 169.1875 238.1875 168.453125 240.082031 167.074219 C 242.664062 165.191406 244.351562 162.160156 244.589844 158.972656 Z M 229.378906 327.613281 C 227.632812 327.09375 225.664062 327.402344 223.96875 328.453125 C 222.277344 329.507812 221.128906 331.144531 220.820312 332.9375 L 222.152344 333.164062 C 222.390625 331.75 223.316406 330.449219 224.683594 329.597656 C 226.046875 328.75 227.621094 328.5 228.996094 328.902344 Z M 107.121094 314.335938 L 61.523438 314.335938 L 59.195312 288.171875 L 59.097656 287.101562 L 27.699219 294.632812 C 12.894531 298.183594 1.984375 310.753906 0.546875 325.914062 L 0.03125 331.355469 L 126.578125 331.355469 L 129.699219 311.734375 L 131.761719 298.769531 L 131.96875 297.488281 C 131.96875 297.488281 127.757812 298.175781 118.703125 303.546875 C 111.210938 307.992188 107.121094 314.335938 107.121094 314.335938 Z M 107.121094 314.335938 " fill-opacity="1" fill-rule="nonzero"/></g><g clip-path="url(#ac657487a3)"><path fill="#3d3d3d" d="M 253.917969 38.613281 C 253.917969 25.296875 263.820312 14.300781 276.664062 12.578125 C 281.285156 5.15625 289.585938 0.203125 299.054688 0.203125 C 304.878906 0.203125 310.257812 2.078125 314.613281 5.242188 C 333.691406 7.257812 348.570312 23.742188 348.570312 43.78125 C 348.570312 51.683594 346.25 59.03125 342.277344 65.160156 C 341.8125 63.125 340.625 61.351562 338.984375 60.085938 C 338.671875 61.667969 338.257812 63.230469 337.746094 64.761719 C 338.136719 65.453125 338.359375 66.246094 338.359375 67.089844 L 337.011719 67.089844 C 337.011719 67.003906 336.992188 66.921875 336.984375 66.839844 C 335.652344 70.167969 333.847656 73.304688 331.609375 76.097656 C 330.753906 77.167969 329.839844 78.191406 328.859375 79.152344 C 328.105469 79.890625 327.238281 80.625 326.226562 80.8125 C 326.089844 80.839844 325.949219 80.855469 325.808594 80.859375 C 323.867188 80.90625 322.515625 78.675781 322.726562 76.75 C 322.941406 74.820312 324.210938 73.195312 325.429688 71.683594 C 320.105469 71.175781 315.332031 68.527344 312.875 64.390625 C 310.414062 60.253906 310.375 54.792969 312.773438 50.617188 C 304.957031 52.703125 296.320312 50.980469 290.660156 45.765625 C 285.511719 41.023438 283.050781 33.589844 284.183594 26.699219 C 271.96875 32.105469 263.382812 44.3125 263.121094 58.582031 C 257.492188 53.761719 253.917969 46.605469 253.917969 38.613281 Z M 334.390625 329.347656 C 334.257812 329.839844 334.128906 330.300781 334.003906 330.742188 C 336.8125 330.292969 339.535156 329.597656 342.160156 328.691406 C 341.832031 328.566406 341.507812 328.441406 341.183594 328.3125 C 338.988281 328.726562 336.703125 329.066406 334.390625 329.347656 Z M 271.394531 296.441406 C 268.082031 292.089844 264.824219 287.335938 261.796875 282.210938 L 242.753906 331.355469 L 256.363281 331.355469 C 257.886719 326.832031 262.8125 320.109375 278.742188 323.289062 C 271.269531 318.191406 269.28125 306.820312 271.394531 296.441406 Z M 242.300781 251.371094 L 228.195312 325.722656 C 228.195312 325.722656 216.316406 324.398438 215.664062 331.355469 L 168.660156 331.355469 C 152.699219 331.355469 138.535156 323.640625 129.699219 311.734375 L 131.761719 298.769531 L 137.003906 280.683594 C 126.730469 283.84375 115.347656 283.632812 104.605469 279.292969 C 93.554688 274.828125 85.050781 266.742188 79.894531 256.964844 C 73.460938 244.765625 72.230469 229.925781 77.800781 216.136719 L 101.539062 157.367188 C 101.882812 156.511719 102.253906 155.675781 102.640625 154.851562 C 103.34375 153.15625 104.140625 151.484375 105.050781 149.839844 C 118.046875 126.410156 147.574219 117.957031 170.996094 130.960938 L 219.257812 157.746094 C 219.28125 157.78125 219.304688 157.820312 219.328125 157.855469 C 219.546875 158.1875 219.871094 158.382812 220.21875 158.445312 C 222.5625 163.808594 226.28125 169.300781 232.039062 171.304688 C 233.398438 171.777344 234.886719 172.1875 236.460938 172.539062 C 234.898438 181.628906 233.765625 190.617188 231.714844 201.554688 C 228.597656 218.175781 232.882812 235.183594 242.300781 251.371094 Z M 229.425781 235.445312 L 229.417969 234.097656 L 175.792969 234.324219 L 192.101562 193.972656 L 190.851562 193.464844 L 167.101562 252.230469 L 167.121094 252.238281 C 162.34375 264.050781 153.265625 273.3125 141.546875 278.3125 L 142.078125 279.554688 C 154.125 274.410156 163.464844 264.886719 168.375 252.734375 L 175.261719 235.671875 Z M 282.398438 67.96875 L 281.050781 67.96875 C 281.050781 71.988281 285.128906 75.261719 290.144531 75.261719 C 295.15625 75.261719 299.238281 71.988281 299.238281 67.96875 L 297.890625 67.96875 C 297.890625 71.246094 294.414062 73.914062 290.144531 73.914062 C 285.871094 73.914062 282.398438 71.246094 282.398438 67.96875 Z M 290.5625 59.359375 L 289.304688 58.867188 L 287.683594 63.007812 C 287.492188 63.492188 287.550781 64.042969 287.839844 64.476562 C 288.125 64.910156 288.609375 65.179688 289.125 65.199219 L 292.015625 65.292969 L 292.058594 63.945312 L 289.167969 63.851562 C 289.054688 63.847656 288.992188 63.777344 288.964844 63.734375 C 288.933594 63.695312 288.894531 63.605469 288.9375 63.496094 Z M 305.128906 57.4375 C 305.128906 56.4375 304.316406 55.625 303.316406 55.625 C 302.316406 55.625 301.503906 56.4375 301.503906 57.4375 C 301.503906 58.441406 302.316406 59.253906 303.316406 59.253906 C 304.316406 59.253906 305.128906 58.441406 305.128906 57.4375 Z M 275.15625 57.4375 C 275.15625 58.441406 275.96875 59.253906 276.96875 59.253906 C 277.96875 59.253906 278.78125 58.441406 278.78125 57.4375 C 278.78125 56.4375 277.96875 55.625 276.96875 55.625 C 275.96875 55.625 275.15625 56.4375 275.15625 57.4375 Z M 315.617188 217.523438 C 315.847656 217.695312 316.066406 217.878906 316.292969 218.058594 C 316.683594 217.949219 317.070312 217.84375 317.460938 217.734375 C 317.324219 217.484375 317.183594 217.234375 317.050781 216.984375 C 316.972656 216.835938 316.890625 216.6875 316.8125 216.539062 C 316.34375 215.644531 315.875 214.746094 315.421875 213.839844 C 315.394531 213.789062 315.371094 213.742188 315.34375 213.691406 C 313.335938 209.6875 311.484375 205.589844 309.816406 201.503906 C 308.613281 202.519531 304.777344 205.273438 301.472656 209.824219 C 306.402344 212.132812 311.335938 214.296875 315.617188 217.523438 Z M 365.976562 296.191406 C 365.972656 296.078125 365.960938 295.960938 365.957031 295.84375 C 365.859375 293.964844 365.652344 292.039062 365.339844 290.078125 C 365.292969 289.785156 365.253906 289.496094 365.203125 289.203125 C 365.117188 288.714844 365.015625 288.222656 364.917969 287.730469 C 364.84375 287.371094 364.773438 287.015625 364.691406 286.652344 C 364.589844 286.1875 364.476562 285.71875 364.363281 285.246094 C 364.265625 284.851562 364.164062 284.453125 364.058594 284.058594 C 363.9375 283.605469 363.8125 283.152344 363.683594 282.699219 C 363.554688 282.269531 363.417969 281.832031 363.28125 281.394531 C 363.148438 280.96875 363.019531 280.542969 362.875 280.117188 C 362.695312 279.585938 362.5 279.054688 362.308594 278.523438 C 362.179688 278.171875 362.0625 277.824219 361.929688 277.472656 C 361.609375 276.636719 361.265625 275.796875 360.90625 274.957031 C 360.761719 274.621094 360.601562 274.28125 360.449219 273.945312 C 360.203125 273.390625 359.953125 272.835938 359.6875 272.28125 C 359.511719 271.914062 359.328125 271.546875 359.144531 271.179688 C 358.878906 270.648438 358.609375 270.121094 358.328125 269.589844 C 358.132812 269.21875 357.933594 268.847656 357.730469 268.480469 C 357.433594 267.941406 357.125 267.402344 356.8125 266.863281 C 356.605469 266.511719 356.398438 266.15625 356.183594 265.804688 C 355.832031 265.21875 355.464844 264.640625 355.09375 264.058594 C 354.898438 263.75 354.707031 263.445312 354.507812 263.140625 C 353.976562 262.339844 353.429688 261.539062 352.859375 260.742188 C 352.800781 260.660156 352.75 260.578125 352.691406 260.496094 C 352.058594 259.613281 351.398438 258.738281 350.71875 257.863281 C 350.515625 257.605469 350.300781 257.347656 350.097656 257.089844 C 349.605469 256.472656 349.105469 255.859375 348.589844 255.25 C 348.328125 254.933594 348.050781 254.625 347.78125 254.3125 C 347.296875 253.753906 346.804688 253.199219 346.300781 252.644531 C 346.046875 252.371094 345.792969 252.097656 345.539062 251.824219 C 337.957031 253.355469 330.820312 254.246094 324.9375 254.25 C 324.117188 255.1875 323.167969 256.050781 322.078125 256.808594 C 321.5 257.210938 320.894531 257.574219 320.273438 257.921875 C 326.667969 260.089844 333.847656 262.117188 341.816406 268.121094 C 355.25 278.242188 347.238281 283.289062 346.050781 295.390625 C 344.769531 308.476562 353.742188 314.65625 360.132812 315.160156 C 360.878906 315.21875 361.621094 315.238281 362.363281 315.230469 C 362.621094 314.730469 362.863281 314.214844 363.09375 313.6875 C 363.109375 313.652344 363.125 313.613281 363.140625 313.578125 C 363.367188 313.054688 363.582031 312.519531 363.78125 311.972656 C 363.789062 311.957031 363.792969 311.9375 363.800781 311.921875 C 364.816406 309.136719 365.492188 306.050781 365.8125 302.746094 C 365.824219 302.625 365.835938 302.507812 365.847656 302.386719 C 365.898438 301.828125 365.933594 301.261719 365.960938 300.6875 C 365.96875 300.515625 365.976562 300.34375 365.984375 300.171875 C 366.003906 299.613281 366.019531 299.054688 366.019531 298.488281 C 366.019531 298.304688 366.015625 298.117188 366.015625 297.933594 C 366.011719 297.355469 366.003906 296.777344 365.976562 296.191406 Z M 299.925781 222.929688 C 298.726562 222.070312 297.652344 221.238281 296.679688 220.425781 C 296.277344 222.363281 296.078125 224.453125 296.148438 226.6875 C 298.222656 227.617188 300.363281 228.292969 302.535156 228.578125 C 302.113281 226.21875 303.410156 225.984375 299.925781 222.929688 Z M 255.519531 145.308594 C 255.519531 146.25 256.285156 147.007812 257.222656 147.007812 C 258.164062 147.007812 258.925781 146.25 258.925781 145.308594 C 258.925781 144.367188 258.164062 143.605469 257.222656 143.605469 C 256.285156 143.605469 255.519531 144.367188 255.519531 145.308594 Z M 273.773438 147.527344 C 273.390625 152.179688 273.238281 157.363281 273.328125 162.507812 L 274.679688 162.484375 C 274.585938 157.382812 274.738281 152.246094 275.113281 147.640625 Z M 300.53125 182.414062 L 299.683594 181.371094 C 294.550781 185.542969 288.761719 188.730469 282.484375 190.84375 L 282.914062 192.121094 C 289.34375 189.957031 295.273438 186.691406 300.53125 182.414062 Z M 261.921875 279.808594 L 263.09375 280.476562 C 263.746094 279.332031 264.90625 276.257812 266.257812 272.695312 C 267.414062 269.636719 268.722656 266.175781 269.855469 263.574219 C 271.253906 260.367188 272.675781 258.378906 274.910156 256.9375 C 274.746094 256.855469 274.609375 256.777344 274.542969 256.722656 C 274.386719 256.597656 274.226562 256.300781 274.066406 255.878906 C 271.671875 257.457031 270.105469 259.621094 268.621094 263.039062 C 267.476562 265.667969 266.160156 269.148438 264.996094 272.21875 C 263.722656 275.578125 262.523438 278.757812 261.921875 279.808594 Z M 306.300781 269.523438 L 306.167969 270.867188 C 314.625 271.691406 322.65625 276.292969 327.648438 283.167969 L 328.738281 282.375 C 323.523438 275.191406 315.132812 270.386719 306.300781 269.523438 Z M 268.882812 327.132812 C 266.160156 328.09375 263.328125 330.582031 263.125 333.972656 L 264.472656 334.050781 C 264.636719 331.277344 267.03125 329.214844 269.328125 328.40625 C 272 327.460938 275.011719 327.714844 277.601562 328.085938 L 277.792969 326.753906 C 275.039062 326.355469 271.824219 326.09375 268.882812 327.132812 Z M 223.96875 328.453125 C 222.277344 329.507812 221.128906 331.144531 220.820312 332.9375 L 222.152344 333.164062 C 222.390625 331.75 223.316406 330.449219 224.683594 329.597656 C 226.046875 328.75 227.621094 328.5 228.996094 328.902344 L 229.378906 327.613281 C 227.632812 327.09375 225.664062 327.402344 223.96875 328.453125 Z M 240.082031 167.074219 C 242.664062 165.191406 244.351562 162.160156 244.589844 158.972656 L 243.242188 158.871094 C 243.035156 161.671875 241.554688 164.332031 239.285156 165.984375 C 237.019531 167.640625 234.039062 168.234375 231.304688 167.578125 L 230.988281 168.886719 C 231.824219 169.089844 232.675781 169.1875 233.53125 169.1875 C 235.863281 169.1875 238.1875 168.453125 240.082031 167.074219 Z M 273.742188 220.265625 L 272.632812 221.035156 C 275.761719 225.558594 278.996094 230.242188 283.207031 234.015625 C 287.929688 238.253906 293.367188 240.667969 298.515625 240.804688 L 298.550781 239.457031 C 293.722656 239.328125 288.59375 237.039062 284.105469 233.011719 C 280.015625 229.34375 276.824219 224.730469 273.742188 220.265625 Z M 276.375 240.960938 L 275.203125 241.628906 C 276.863281 244.554688 279.160156 247.085938 281.855469 249.078125 C 282.351562 249.445312 282.871094 249.792969 283.394531 250.121094 C 286.542969 252.105469 290.132812 253.386719 293.851562 253.757812 L 293.984375 252.414062 C 286.722656 251.695312 279.976562 247.308594 276.375 240.960938 Z M 373.402344 200.890625 L 373.386719 199.542969 C 367.421875 199.609375 361.375 200.898438 355.898438 203.269531 L 356.433594 204.507812 C 361.746094 202.207031 367.613281 200.957031 373.402344 200.890625 Z M 373.402344 200.890625 " fill-opacity="1" fill-rule="nonzero"/></g><g clip-path="url(#57f01ee703)"><path fill="#f08faf" d="M 201.175781 73.8125 C 205.746094 62.453125 217.382812 56.355469 226.039062 64.890625 C 242.125 80.710938 201.820312 109.539062 201.820312 109.539062 C 181.328125 92.761719 166.488281 78.375 178.535156 65.535156 C 185.289062 58.324219 196.445312 62.964844 201.175781 73.8125 Z M 201.175781 73.8125 " fill-opacity="1" fill-rule="nonzero"/></g></svg>