<svg xmlns="http://www.w3.org/2000/svg" xmlns:xlink="http://www.w3.org/1999/xlink" width="557" zoomAndPan="magnify" viewBox="0 0 417.75 428.250001" height="571" preserveAspectRatio="xMidYMid meet" version="1.0"><defs><clipPath id="f386e21ca0"><path d="M 328 10 L 385 10 L 385 58.957031 L 328 58.957031 Z M 328 10 " clip-rule="nonzero"/></clipPath><clipPath id="9382a8bdfc"><path d="M 7 96 L 64 96 L 64 145.296875 L 7 145.296875 Z M 7 96 " clip-rule="nonzero"/></clipPath></defs><path fill="#ebbfa9" d="M 370.386719 426.054688 C 370.09375 426.054688 369.792969 426.046875 369.484375 426.03125 C 363.890625 425.476562 286.1875 417.546875 240.371094 412.871094 L 239.523438 412.785156 L 239.167969 416.339844 L 62.71875 398.878906 C 50.027344 397.621094 38.585938 391.503906 30.5 381.644531 C 22.414062 371.789062 18.652344 359.375 19.910156 346.691406 C 22.339844 322.175781 42.742188 303.6875 67.371094 303.6875 C 67.675781 303.6875 67.980469 303.691406 68.285156 303.699219 L 69.195312 303.714844 L 69.148438 302.804688 C 66.660156 253.960938 69.492188 165.457031 116.441406 121.511719 C 119.640625 118.515625 123.234375 115.84375 127.117188 113.5625 L 128.519531 112.738281 L 127.042969 112.058594 C 118.375 108.050781 104.488281 98.136719 108.871094 76.761719 C 111.160156 65.625 116.375 61.054688 121.417969 56.636719 C 124.835938 53.648438 128.058594 50.820312 130.222656 46.195312 C 131.949219 42.496094 132.867188 38.511719 133.75 34.664062 C 134.539062 31.222656 135.359375 27.667969 136.75 24.386719 C 140.660156 15.167969 154.714844 4.890625 165.667969 3.234375 C 168.300781 2.839844 171.011719 2.636719 173.722656 2.636719 C 186.597656 2.636719 197.992188 7.117188 201.433594 13.527344 L 201.679688 13.984375 L 202.195312 13.976562 C 202.476562 13.972656 202.648438 13.84375 202.773438 13.75 C 204 12.828125 208.4375 9.820312 213.953125 9.820312 C 217.71875 9.820312 221.261719 11.214844 224.484375 13.960938 C 239.492188 26.753906 240.40625 43.058594 241.070312 54.960938 C 241.460938 61.941406 241.769531 67.457031 244.617188 70.523438 C 253.074219 79.628906 255.125 95.296875 243.921875 105.761719 C 237.082031 112.148438 228.140625 114.722656 221.847656 115.757812 L 219.34375 116.171875 L 221.589844 117.351562 C 231.519531 122.5625 240.292969 129.070312 246.960938 136.167969 L 247.800781 137.0625 L 248.34375 135.964844 C 254.867188 122.796875 268.015625 114.179688 282.660156 113.46875 L 283.46875 113.429688 L 283.46875 81.472656 C 289.449219 84.222656 316.335938 98.082031 316.335938 124.804688 L 316.335938 128.703125 L 316.519531 128.933594 C 321.425781 135.183594 324.359375 142.671875 325 150.585938 L 325.046875 151.15625 L 325.148438 151.1875 C 325.160156 160.148438 325.578125 166.714844 330.140625 174.828125 L 331.28125 176.859375 L 331.300781 176.765625 C 333.203125 179.808594 335.6875 183.082031 338.84375 186.714844 L 339.003906 186.902344 C 339.324219 187.269531 339.660156 187.644531 339.996094 188.023438 L 340.503906 188.59375 C 340.789062 188.910156 341.085938 189.234375 341.382812 189.558594 L 342.125 190.363281 L 342.921875 191.21875 C 343.234375 191.550781 343.554688 191.890625 343.878906 192.230469 L 344.597656 192.984375 C 344.988281 193.390625 346.390625 194.832031 346.390625 194.832031 C 346.910156 195.359375 347.441406 195.898438 347.988281 196.445312 L 348.308594 196.769531 C 348.988281 197.449219 349.691406 198.144531 350.410156 198.855469 C 354.78125 203.152344 358.183594 208.976562 360.523438 216.167969 L 361.929688 215.785156 L 361.335938 216.570312 L 361.453125 216.566406 C 362.847656 216.566406 369.933594 217.054688 372.503906 226.648438 C 377.171875 244.066406 376.460938 254.621094 370.136719 261.933594 L 369.824219 262.296875 L 369.96875 262.75 C 373.21875 272.972656 374.941406 287.109375 364.683594 296.375 L 364.402344 296.628906 L 364.402344 302.894531 L 365.289062 302.859375 C 365.988281 302.828125 366.683594 302.8125 367.375 302.8125 C 392.839844 302.8125 413.769531 322.734375 415.023438 348.171875 C 415.828125 364.40625 408.40625 379.773438 395.167969 389.285156 L 394.804688 389.546875 L 394.816406 389.996094 C 394.902344 393.808594 392.898438 396.675781 392.878906 396.703125 L 392.648438 397.03125 L 392.75 397.417969 C 392.828125 397.710938 394.605469 404.679688 388.617188 407.019531 C 387.972656 407.28125 388.054688 407.917969 388.101562 408.296875 C 388.203125 409.117188 388.480469 411.296875 387.097656 413.410156 C 385.261719 416.21875 383.695312 416.433594 383.261719 416.433594 L 382.476562 416.285156 L 382.214844 417.058594 C 382.117188 417.421875 379.761719 426.054688 370.386719 426.054688 Z M 395.589844 388.851562 C 395.636719 389.234375 395.65625 389.609375 395.664062 389.976562 C 395.757812 394.113281 393.570312 397.195312 393.570312 397.195312 C 393.570312 397.195312 395.714844 405.15625 388.925781 407.8125 C 388.78125 407.871094 389.757812 410.894531 387.804688 413.875 C 385.300781 417.707031 383.039062 417.269531 383.039062 417.269531 C 383.039062 417.269531 380.410156 427.5 369.4375 426.878906 C 364.1875 426.359375 295.039062 419.304688 240.285156 413.71875 L 246.167969 354.351562 C 254.859375 356.242188 260.949219 357.21875 261.167969 356.316406 C 263.125 347.75 273.476562 343.523438 282.191406 344.730469 C 301.570312 347.414062 310.046875 367.628906 359.257812 362.320312 C 380.296875 360.050781 391.371094 360.527344 396.230469 363.617188 C 403.898438 368.488281 398.875 383.410156 390.664062 383.046875 C 392.152344 383.832031 394.851562 382.902344 395.589844 388.851562 Z M 381.792969 382.929688 L 388.816406 383.832031 L 389.019531 382.25 L 381.996094 381.351562 Z M 382.613281 416.507812 L 370.488281 414 L 370.167969 415.558594 L 382.292969 418.066406 Z M 388.6875 406.464844 L 376.5625 403.957031 L 376.242188 405.515625 L 388.363281 408.019531 Z M 393.136719 396.402344 L 381.011719 393.898438 L 380.6875 395.457031 L 392.8125 397.960938 Z M 191.765625 105.464844 C 191.59375 105.464844 191.421875 105.453125 191.25 105.449219 C 190.546875 105.441406 189.84375 105.414062 189.148438 105.367188 L 189.148438 136.328125 L 171.152344 114.984375 L 171.152344 112.570312 L 182.101562 112.570312 C 182.101562 112.570312 162.082031 88.996094 172.878906 77.191406 C 186.304688 62.503906 173.335938 56.582031 176.183594 40.910156 C 178.804688 26.515625 189.828125 24.371094 193.65625 24.0625 C 215.0625 25.0625 232.113281 42.890625 232.113281 64.738281 C 232.113281 87.230469 214.046875 105.464844 191.765625 105.464844 Z M 215.355469 62.660156 C 215.355469 63.808594 216.289062 64.738281 217.433594 64.738281 C 218.582031 64.738281 219.511719 63.808594 219.511719 62.660156 C 219.511719 61.511719 218.582031 60.582031 217.433594 60.582031 C 216.289062 60.582031 215.355469 61.511719 215.355469 62.660156 Z M 203.820312 69.972656 L 200.121094 70.097656 L 200.171875 71.6875 L 204.269531 71.550781 C 204.695312 71.539062 205.089844 71.320312 205.324219 70.960938 C 205.558594 70.609375 205.605469 70.160156 205.449219 69.761719 L 203.304688 64.289062 L 201.820312 64.871094 Z M 191.863281 74.730469 C 191.867188 79.351562 196.554688 83.113281 202.320312 83.113281 C 208.085938 83.113281 212.777344 79.351562 212.777344 74.730469 L 211.183594 74.730469 C 211.183594 78.472656 207.207031 81.519531 202.320312 81.519531 C 197.433594 81.519531 193.457031 78.472656 193.457031 74.730469 Z M 189.289062 62.660156 C 189.289062 61.511719 188.355469 60.582031 187.207031 60.582031 C 186.058594 60.582031 185.128906 61.511719 185.128906 62.660156 C 185.128906 63.808594 186.058594 64.738281 187.207031 64.738281 C 188.355469 64.738281 189.289062 63.808594 189.289062 62.660156 Z M 361.332031 215.910156 L 361.332031 215.90625 L 361.289062 215.71875 C 361.289062 215.71875 370.328125 215.238281 373.324219 226.425781 C 378.246094 244.792969 377.144531 255.128906 370.777344 262.488281 C 373.992188 272.597656 375.957031 287.332031 365.253906 297.003906 C 363.273438 298.792969 360.867188 300.410156 357.949219 301.789062 C 355.917969 302.75 353.949219 303.667969 352.039062 304.554688 C 323.59375 317.722656 307.628906 322.914062 289.820312 325.910156 C 278.75 327.773438 268.773438 325.941406 260.605469 322.5625 C 253.394531 319.582031 247.597656 315.398438 243.691406 311.476562 C 238.546875 312.25 233.863281 312.597656 229.871094 312.378906 C 223.261719 312.019531 214.519531 308.136719 204.820312 302.214844 C 167.59375 279.484375 116.171875 226.617188 116.171875 226.617188 L 176.257812 203.167969 L 200.816406 222.527344 C 188.730469 233.132812 178.105469 257.808594 178.105469 257.808594 C 178.105469 257.808594 190.285156 261.71875 202.382812 257.808594 C 212.863281 254.417969 221.8125 245.328125 221.8125 245.328125 L 233.386719 248.199219 L 236.894531 250.960938 L 303.75 241.683594 C 303.75 241.683594 302.472656 231.597656 317.679688 224.5 C 325.921875 220.65625 333.148438 217.734375 338.046875 215.859375 C 342.195312 214.273438 344.671875 213.4375 344.671875 213.4375 C 351.230469 221.398438 339.894531 233.269531 339.894531 233.269531 L 359.085938 226.152344 C 361.503906 225.257812 362.882812 222.707031 362.308594 220.195312 Z M 367.835938 266.4375 L 366.828125 265.203125 C 361.171875 269.804688 352.691406 273.386719 343.007812 277.261719 C 341.796875 277.746094 339.925781 278.527344 337.515625 279.53125 C 321.03125 286.414062 282.421875 302.53125 252.753906 308.984375 L 253.09375 310.539062 C 282.902344 304.054688 321.605469 287.898438 338.128906 281.003906 C 340.53125 280 342.390625 279.222656 343.597656 278.738281 C 353.410156 274.816406 362 271.179688 367.835938 266.4375 Z M 373.863281 254.996094 L 372.972656 253.679688 C 367.679688 257.261719 359.34375 260.089844 359.261719 260.117188 L 359.769531 261.625 C 360.117188 261.507812 368.390625 258.703125 373.863281 254.996094 Z M 356.273438 250.207031 L 356.78125 251.714844 C 358.527344 251.128906 373.863281 245.8125 375.5625 239.917969 L 374.03125 239.476562 C 372.785156 243.792969 360.789062 248.6875 356.273438 250.207031 Z M 353.285156 240.300781 L 353.792969 241.808594 C 355.539062 241.222656 370.875 235.902344 372.574219 230.011719 L 371.042969 229.570312 C 369.796875 233.882812 357.804688 238.777344 353.285156 240.300781 Z M 353.285156 240.300781 " fill-opacity="1" fill-rule="nonzero"/><path fill="#93a4cc" d="M 259.835938 195.207031 C 259.394531 195.527344 259.15625 195.707031 259.15625 195.707031 C 259.15625 195.707031 252.433594 203.507812 244.871094 218.316406 C 234.734375 218.019531 221.484375 217.773438 210.878906 217.773438 C 207.539062 217.773438 204.121094 219.625 200.816406 222.527344 L 176.257812 203.167969 L 116.171875 226.617188 C 116.171875 226.617188 167.59375 279.484375 204.820312 302.214844 L 209.296875 329.269531 C 209.296875 329.269531 158.945312 320.242188 137.996094 319.425781 L 72.210938 303.0625 C 70.898438 302.929688 69.597656 302.871094 68.300781 302.847656 C 65.746094 252.785156 68.859375 164.882812 115.859375 120.890625 C 119.1875 117.773438 122.820312 115.097656 126.6875 112.828125 C 131.289062 110.128906 136.226562 108.015625 141.394531 106.429688 C 146.039062 110.5625 151.410156 112.566406 151.410156 112.566406 L 171.152344 112.566406 L 171.152344 114.980469 L 189.148438 136.328125 L 189.148438 105.367188 C 189.84375 105.414062 190.546875 105.441406 191.25 105.449219 C 202.015625 107.796875 212.496094 111.617188 221.988281 116.597656 C 231.867188 121.785156 240.671875 128.226562 247.582031 135.585938 C 244.847656 141.101562 243.304688 147.3125 243.304688 153.886719 L 208.210938 153.886719 C 205.855469 153.886719 204.121094 156.792969 204.683594 159.046875 C 207.3125 169.566406 215.914062 195.207031 237.3125 195.207031 Z M 259.835938 195.207031 " fill-opacity="1" fill-rule="nonzero"/><path fill="#99673c" d="M 316.085938 203.542969 C 326.191406 205.9375 334.433594 212.566406 338.046875 215.859375 C 333.148438 217.734375 325.917969 220.65625 317.679688 224.5 C 302.46875 231.597656 303.75 241.683594 303.75 241.683594 L 236.890625 250.960938 L 233.386719 248.199219 L 221.808594 245.328125 C 221.808594 245.328125 212.863281 254.417969 202.382812 257.808594 C 190.285156 261.71875 178.105469 257.808594 178.105469 257.808594 C 178.105469 257.808594 188.730469 233.132812 200.816406 222.527344 C 204.121094 219.625 207.539062 217.773438 210.878906 217.773438 C 221.484375 217.773438 234.734375 218.019531 244.871094 218.316406 C 252.433594 203.507812 259.152344 195.707031 259.152344 195.707031 C 259.152344 195.707031 259.394531 195.527344 259.835938 195.207031 L 285.914062 195.207031 L 251.578125 153.886719 L 243.304688 153.886719 C 243.304688 147.316406 244.847656 141.101562 247.582031 135.585938 C 254.054688 122.519531 267.226562 113.363281 282.617188 112.621094 L 282.617188 80.171875 C 282.617188 80.171875 317.1875 93.945312 317.1875 124.804688 L 317.1875 128.410156 C 322.046875 134.601562 325.175781 142.210938 325.847656 150.515625 C 325.941406 150.546875 325.996094 150.601562 325.996094 150.703125 C 325.996094 160.007812 326.421875 166.484375 330.878906 174.414062 C 330.683594 175.40625 330.4375 176.394531 330.160156 177.367188 C 329.3125 180.339844 328.945312 183.460938 327.78125 186.347656 C 326.632812 189.195312 325.007812 191.90625 323.355469 194.488281 C 321.328125 197.65625 318.941406 200.90625 316.085938 203.542969 Z M 229.871094 312.378906 C 223.261719 312.019531 214.519531 308.136719 204.820312 302.214844 C 201.339844 308.394531 199.589844 316.171875 198.210938 322.292969 C 183.59375 315.730469 160.40625 303.984375 148.691406 307.195312 C 140.398438 309.472656 137.714844 314.476562 137.996094 319.425781 L 199.21875 334.652344 L 260.605469 322.5625 C 253.394531 319.582031 247.597656 315.398438 243.691406 311.476562 C 238.546875 312.25 233.863281 312.597656 229.871094 312.378906 Z M 357.949219 301.789062 C 355.917969 302.75 353.949219 303.667969 352.039062 304.554688 L 364.941406 302.015625 C 365.042969 302.007812 365.148438 302.011719 365.253906 302.007812 L 365.253906 297.003906 C 363.273438 298.792969 360.867188 300.410156 357.949219 301.789062 Z M 361.332031 215.90625 C 359.136719 209.15625 355.84375 203 351.007812 198.246094 C 350.289062 197.539062 349.589844 196.847656 348.910156 196.167969 C 349.589844 196.847656 350.285156 197.539062 351.007812 198.25 C 355.847656 203.003906 359.140625 209.160156 361.332031 215.910156 Z M 237.515625 191.8125 C 255.523438 191.246094 250.558594 175.519531 250.558594 175.519531 L 230.425781 154.96875 L 207.027344 154.96875 C 207.027344 154.96875 204.476562 162.195312 210.714844 172.683594 C 216.953125 183.171875 219.507812 192.382812 237.515625 191.8125 Z M 237.515625 191.8125 " fill-opacity="1" fill-rule="nonzero"/><path fill="#d64e4e" d="M 395.664062 389.976562 C 395.65625 389.609375 395.636719 389.234375 395.589844 388.851562 C 394.851562 382.902344 392.152344 383.832031 390.664062 383.046875 C 398.875 383.410156 403.898438 368.488281 396.230469 363.617188 C 391.367188 360.527344 380.296875 360.050781 359.257812 362.320312 C 310.046875 367.628906 301.566406 347.414062 282.1875 344.730469 C 273.476562 343.523438 263.125 347.75 261.167969 356.316406 C 260.949219 357.21875 254.859375 356.242188 246.167969 354.351562 L 240.285156 413.71875 L 239.933594 417.269531 L 62.636719 399.722656 C 35.925781 397.082031 16.417969 373.300781 19.0625 346.609375 C 21.578125 321.226562 43.21875 302.371094 68.300781 302.847656 C 69.597656 302.871094 70.898438 302.933594 72.210938 303.0625 L 137.996094 319.425781 L 199.21875 334.652344 L 260.605469 322.5625 C 268.773438 325.941406 278.75 327.773438 289.820312 325.910156 C 307.628906 322.914062 323.59375 317.726562 352.039062 304.554688 L 364.941406 302.015625 C 365.042969 302.007812 365.148438 302.011719 365.253906 302.007812 C 391.921875 300.859375 414.554688 321.441406 415.875 348.128906 C 416.71875 365.222656 408.605469 380.675781 395.664062 389.976562 Z M 395.664062 389.976562 " fill-opacity="1" fill-rule="nonzero"/><path fill="#3d3d3d" d="M 338.046875 215.859375 C 334.433594 212.566406 326.191406 205.9375 316.085938 203.542969 C 318.941406 200.90625 321.328125 197.65625 323.359375 194.484375 C 325.007812 191.90625 326.632812 189.195312 327.785156 186.34375 C 328.945312 183.460938 329.316406 180.339844 330.160156 177.367188 C 330.4375 176.394531 330.683594 175.40625 330.882812 174.414062 C 330.882812 174.410156 330.882812 174.402344 330.882812 174.398438 C 332.855469 177.910156 335.617188 181.707031 339.484375 186.15625 C 339.539062 186.21875 339.589844 186.28125 339.644531 186.339844 C 339.960938 186.707031 340.296875 187.082031 340.628906 187.457031 C 340.796875 187.644531 340.964844 187.832031 341.136719 188.023438 C 341.421875 188.339844 341.714844 188.660156 342.011719 188.984375 C 342.253906 189.25 342.5 189.515625 342.75 189.785156 C 343.007812 190.066406 343.273438 190.351562 343.542969 190.636719 C 343.851562 190.96875 344.171875 191.304688 344.492188 191.644531 C 344.730469 191.890625 344.964844 192.140625 345.207031 192.394531 C 345.597656 192.800781 346 193.210938 346.402344 193.628906 C 346.601562 193.832031 346.792969 194.03125 346.996094 194.234375 C 347.511719 194.761719 348.042969 195.300781 348.585938 195.84375 C 348.695312 195.953125 348.800781 196.058594 348.910156 196.167969 C 349.589844 196.847656 350.285156 197.539062 351.007812 198.25 C 355.84375 203.003906 359.136719 209.160156 361.332031 215.910156 L 362.308594 220.195312 C 362.882812 222.707031 361.503906 225.257812 359.082031 226.15625 L 339.890625 233.269531 C 339.890625 233.269531 351.226562 221.398438 344.671875 213.441406 C 344.671875 213.441406 342.195312 214.273438 338.046875 215.859375 Z M 193.457031 74.730469 L 191.863281 74.730469 C 191.867188 79.351562 196.554688 83.113281 202.320312 83.113281 C 208.085938 83.113281 212.777344 79.351562 212.777344 74.730469 L 211.183594 74.730469 C 211.183594 78.472656 207.207031 81.519531 202.320312 81.519531 C 197.433594 81.519531 193.457031 78.472656 193.457031 74.730469 Z M 200.171875 71.6875 L 204.269531 71.550781 C 204.695312 71.539062 205.089844 71.320312 205.324219 70.960938 C 205.558594 70.609375 205.605469 70.160156 205.449219 69.761719 L 203.304688 64.289062 L 201.820312 64.871094 L 203.820312 69.972656 L 200.121094 70.097656 Z M 189.289062 62.660156 C 189.289062 61.511719 188.355469 60.582031 187.207031 60.582031 C 186.058594 60.582031 185.128906 61.511719 185.128906 62.660156 C 185.128906 63.808594 186.058594 64.738281 187.207031 64.738281 C 188.355469 64.738281 189.289062 63.808594 189.289062 62.660156 Z M 219.511719 62.660156 C 219.511719 61.511719 218.582031 60.582031 217.433594 60.582031 C 216.289062 60.582031 215.355469 61.511719 215.355469 62.660156 C 215.355469 63.808594 216.289062 64.738281 217.433594 64.738281 C 218.582031 64.738281 219.511719 63.808594 219.511719 62.660156 Z M 353.792969 241.808594 C 355.539062 241.222656 370.875 235.902344 372.574219 230.011719 L 371.042969 229.570312 C 369.796875 233.882812 357.804688 238.777344 353.285156 240.300781 Z M 356.273438 250.207031 L 356.78125 251.714844 C 358.527344 251.128906 373.863281 245.8125 375.5625 239.917969 L 374.03125 239.476562 C 372.785156 243.792969 360.789062 248.6875 356.273438 250.207031 Z M 359.769531 261.625 C 360.117188 261.507812 368.390625 258.703125 373.863281 254.996094 L 372.972656 253.679688 C 367.679688 257.261719 359.34375 260.089844 359.261719 260.117188 Z M 194.050781 257.464844 L 195.496094 258.132812 L 199.71875 249.027344 L 198.273438 248.359375 Z M 183.863281 257.46875 L 185.304688 258.140625 L 190.496094 247 L 189.050781 246.328125 Z M 269.613281 217.859375 L 248.796875 217.859375 L 248.796875 219.453125 L 269.613281 219.453125 Z M 204.683594 159.046875 C 204.121094 156.792969 205.855469 153.886719 208.210938 153.886719 L 251.578125 153.886719 L 285.914062 195.207031 L 237.3125 195.207031 C 215.914062 195.207031 207.3125 169.566406 204.683594 159.046875 Z M 223.871094 188.914062 L 231.386719 188.914062 C 236.644531 188.914062 244.28125 185.167969 244.28125 179.300781 L 242.6875 179.300781 C 242.6875 184.121094 235.886719 187.324219 231.386719 187.324219 L 223.871094 187.324219 Z M 219.414062 157.023438 L 218.140625 156.070312 L 208.949219 168.335938 L 210.222656 169.292969 Z M 260.09375 153.886719 C 261.398438 153.886719 262.457031 152.832031 262.457031 151.527344 C 262.457031 150.222656 261.398438 149.167969 260.09375 149.167969 C 258.789062 149.167969 257.730469 150.222656 257.730469 151.527344 C 257.730469 152.832031 258.789062 153.886719 260.09375 153.886719 Z M 289.515625 94.539062 C 293.507812 96.636719 306.886719 104.742188 308.148438 119.746094 L 309.738281 119.613281 C 308.179688 101.113281 289.230469 92.609375 289.039062 92.527344 L 287.921875 92.039062 L 287.921875 113.828125 L 289.515625 113.828125 Z M 343.007812 277.261719 C 341.796875 277.746094 339.925781 278.527344 337.515625 279.53125 C 321.03125 286.414062 282.421875 302.53125 252.753906 308.984375 L 253.09375 310.539062 C 282.902344 304.054688 321.605469 287.898438 338.128906 281.003906 C 340.53125 280 342.390625 279.222656 343.597656 278.738281 C 353.410156 274.816406 362 271.179688 367.835938 266.4375 L 366.828125 265.203125 C 361.171875 269.804688 352.691406 273.386719 343.007812 277.261719 Z M 204.976562 337.078125 L 246.277344 347.007812 L 246.144531 352.019531 L 247.738281 352.058594 L 247.902344 345.761719 L 205.347656 335.527344 Z M 389.019531 382.253906 L 381.996094 381.351562 L 381.792969 382.933594 L 388.816406 383.832031 Z M 381.011719 393.898438 L 380.6875 395.457031 L 392.8125 397.960938 L 393.136719 396.402344 Z M 376.242188 405.515625 L 388.363281 408.019531 L 388.6875 406.464844 L 376.5625 403.957031 Z M 370.167969 415.558594 L 382.292969 418.066406 L 382.613281 416.507812 L 370.488281 414 Z M 96.914062 231.140625 L 90.484375 191.71875 L 88.910156 191.972656 L 95.628906 233.167969 L 107.398438 229.773438 L 106.957031 228.242188 Z M 190.3125 196.648438 L 189.742188 195.769531 C 182.21875 184.097656 174.433594 172.027344 167.511719 159.699219 L 166.121094 160.476562 C 172.894531 172.539062 180.476562 184.335938 187.894531 195.835938 L 180.355469 198.167969 L 180.824219 199.6875 L 189.367188 197.046875 Z M 191.25 105.449219 C 202.015625 107.796875 212.496094 111.617188 221.988281 116.597656 C 228.917969 115.457031 237.691406 112.742188 244.503906 106.382812 C 255.417969 96.191406 254.550781 79.964844 245.246094 69.945312 C 237.84375 61.976562 248.796875 33.566406 225.039062 13.316406 C 213.703125 3.652344 202.242188 13.125 202.183594 13.128906 C 197.757812 4.875 181.375 0.00390625 165.542969 2.394531 C 154.539062 4.054688 140.070312 14.378906 135.964844 24.054688 C 132.988281 31.074219 132.683594 38.917969 129.449219 45.835938 C 124.179688 57.109375 111.917969 57.691406 108.039062 76.589844 C 103.988281 96.332031 114.859375 107.359375 126.6875 112.828125 C 131.289062 110.128906 136.226562 108.015625 141.394531 106.433594 C 146.039062 110.566406 151.410156 112.570312 151.410156 112.570312 L 182.101562 112.570312 C 182.101562 112.570312 162.082031 88.996094 172.878906 77.191406 C 186.304688 62.503906 173.335938 56.582031 176.183594 40.910156 C 178.804688 26.515625 189.828125 24.371094 193.65625 24.0625 C 215.0625 25.0625 232.113281 42.890625 232.113281 64.738281 C 232.113281 87.230469 214.046875 105.464844 191.765625 105.464844 C 191.59375 105.464844 191.421875 105.453125 191.25 105.449219 Z M 191.25 105.449219 " fill-opacity="1" fill-rule="nonzero"/><g clip-path="url(#f386e21ca0)"><path fill="#f08faf" d="M 355.691406 23.246094 C 360.261719 11.894531 371.890625 5.800781 380.542969 14.328125 C 396.621094 30.140625 356.335938 58.957031 356.335938 58.957031 C 335.855469 42.1875 321.023438 27.808594 333.0625 14.972656 C 339.8125 7.765625 350.964844 12.40625 355.691406 23.246094 Z M 355.691406 23.246094 " fill-opacity="1" fill-rule="nonzero"/></g><g clip-path="url(#9382a8bdfc)"><path fill="#f08faf" d="M 34.917969 109.585938 C 39.488281 98.230469 51.121094 92.136719 59.769531 100.667969 C 75.847656 116.480469 35.5625 145.296875 35.5625 145.296875 C 15.082031 128.523438 0.25 114.144531 12.292969 101.3125 C 19.042969 94.105469 30.195312 98.742188 34.917969 109.585938 Z M 34.917969 109.585938 " fill-opacity="1" fill-rule="nonzero"/></g></svg>